<?xml version="1.0" standalone="no"?>
<!DOCTYPE svg PUBLIC "-//W3C//DTD SVG 20010904//EN"
 "http://www.w3.org/TR/2001/REC-SVG-20010904/DTD/svg10.dtd">
<svg version="1.0" xmlns="http://www.w3.org/2000/svg"
 width="500.000000pt" height="500.000000pt" viewBox="0 0 500.000000 500.000000"
 preserveAspectRatio="xMidYMid meet">
<metadata>
Created by potrace 1.14, written by Peter Selinger 2001-2017
</metadata>
<g transform="translate(0.000000,500.000000) scale(0.100000,-0.100000)"
fill="#000000" stroke="none">
<path d="M2488 4832 c-44 -5 -64 -41 -67 -114 -3 -94 -4 -96 -69 -103 -31 -4
-68 -9 -82 -11 -14 -2 -43 -6 -65 -9 -46 -6 -133 -24 -155 -32 -8 -4 -18 -6
-22 -5 -4 1 -35 -8 -70 -19 -35 -11 -70 -21 -78 -22 -8 -2 -20 -6 -26 -9 -6
-4 -22 -9 -36 -12 -14 -2 -34 -9 -44 -14 -11 -6 -55 -25 -99 -43 -44 -18 -83
-38 -87 -44 -4 -5 -8 -7 -8 -2 0 4 -17 -3 -37 -16 -21 -12 -59 -34 -85 -47
-27 -14 -48 -28 -48 -32 0 -5 -6 -8 -14 -8 -21 0 -228 -153 -255 -189 -13 -17
-28 -31 -33 -31 -6 0 -31 21 -57 48 -78 79 -101 94 -135 86 -33 -7 -50 -23
-70 -69 -18 -38 -8 -62 54 -134 28 -32 50 -62 50 -67 0 -5 -33 -43 -72 -85
-40 -41 -86 -91 -103 -112 l-30 -38 -40 14 c-52 18 -95 13 -156 -18 -41 -22
-72 -51 -96 -91 -10 -17 -31 -50 -48 -74 -25 -36 -30 -53 -29 -100 1 -64 26
-107 81 -140 18 -11 33 -26 33 -34 0 -9 11 -23 24 -31 26 -17 26 -21 -4 -103
-9 -25 -17 -32 -34 -30 -17 2 -22 12 -26 49 -4 41 -7 46 -25 39 -79 -30 -83
-165 -7 -247 26 -29 32 -42 27 -62 -12 -46 -15 -65 -26 -146 -13 -107 -21
-123 -56 -123 -170 1 -209 -26 -194 -137 1 -5 16 -20 34 -32 25 -17 50 -23
109 -25 42 -2 81 -7 85 -12 4 -4 9 -22 9 -39 2 -62 13 -163 24 -220 6 -31 9
-61 5 -66 -3 -5 -19 -12 -35 -16 -51 -11 -70 -81 -34 -123 19 -23 41 -31 28
-10 -4 7 -3 8 5 4 6 -4 9 -11 6 -16 -6 -10 33 -25 57 -21 9 1 20 -3 24 -10 5
-8 3 -10 -7 -4 -8 5 -5 -1 5 -13 11 -12 16 -22 13 -22 -3 0 3 -25 14 -55 10
-30 19 -59 19 -63 0 -5 -22 -12 -49 -14 -49 -5 -116 -42 -106 -58 3 -5 1 -11
-5 -15 -15 -9 -5 -60 18 -92 11 -16 24 -42 28 -59 13 -56 46 -109 90 -144 24
-19 48 -35 53 -35 5 0 13 -3 17 -7 4 -5 14 -8 21 -8 8 0 33 -15 56 -32 57 -45
67 -55 67 -67 0 -6 16 -28 35 -50 30 -33 41 -38 78 -38 23 0 55 -7 70 -15 l28
-14 -45 -56 c-60 -72 -60 -121 -2 -170 35 -29 76 -23 121 19 77 72 68 71 129
13 31 -29 72 -64 93 -78 21 -14 40 -28 43 -32 9 -12 203 -136 270 -172 142
-78 437 -185 558 -203 15 -2 38 -7 52 -9 14 -3 36 -8 50 -11 14 -3 45 -8 70
-10 25 -3 54 -7 65 -9 11 -3 34 -5 52 -5 31 -1 32 -3 38 -55 7 -57 23 -79 64
-89 49 -12 91 33 91 97 0 36 13 44 80 51 274 29 593 126 810 246 99 54 268
164 285 185 6 6 18 16 27 20 9 5 44 35 76 67 33 31 64 57 68 57 5 0 31 -23 58
-50 54 -55 87 -63 132 -34 53 35 66 110 25 144 -10 8 -61 78 -61 84 0 3 21 21
48 41 26 20 49 43 52 50 3 7 28 28 55 47 43 29 50 37 47 63 -3 23 3 35 28 55
18 15 34 37 36 51 2 13 5 31 6 39 5 22 68 107 113 153 22 22 32 35 22 27 -35
-26 -12 29 31 75 23 25 42 54 42 64 0 11 6 26 14 33 18 19 41 66 51 103 16 66
16 75 0 75 -10 0 -13 5 -9 12 5 7 3 8 -5 4 -7 -5 -10 -14 -7 -22 3 -8 -1 -14
-9 -14 -8 0 -15 -7 -15 -16 0 -8 -4 -13 -9 -9 -5 3 -16 -1 -24 -9 -26 -26 -37
0 -22 53 24 80 47 222 61 371 3 41 10 77 15 80 4 3 41 7 81 8 81 2 130 22 147
59 15 32 14 49 -4 82 -18 37 -56 51 -141 56 -38 2 -74 4 -79 4 -6 1 -12 13
-13 29 -2 25 -14 98 -27 162 -9 42 5 77 46 122 82 90 87 188 12 221 -21 9 -55
18 -75 19 -41 2 -42 4 -38 73 7 150 6 156 -24 181 -15 13 -31 22 -35 19 -5 -2
-14 13 -21 35 -12 35 -11 41 9 66 25 32 27 61 6 111 -20 46 -19 63 5 93 23 30
26 76 5 97 -24 23 -106 19 -163 -10 -79 -40 -93 -35 -213 73 l-39 36 60 67
c33 38 61 73 61 80 8 76 -55 140 -115 117 -15 -5 -48 -30 -74 -55 l-47 -46
-37 42 c-21 23 -38 46 -38 50 0 7 -81 27 -110 26 -8 0 -42 18 -75 40 -33 22
-76 48 -95 59 -19 10 -37 22 -40 26 -13 17 -237 120 -330 151 -105 36 -235 71
-300 82 -19 3 -43 8 -52 11 -9 3 -32 7 -50 9 -80 10 -126 15 -160 18 -21 2
-40 6 -43 9 -3 3 -8 38 -11 79 -7 102 -35 139 -96 131z"/>
<path d="M4270 4029 c0 -5 3 -8 8 -5 4 2 14 -1 23 -7 22 -17 6 -79 -19 -71
-15 5 -16 5 0 -5 9 -6 14 -19 11 -29 -3 -12 1 -19 10 -19 10 0 14 9 12 24 -1
13 1 23 4 23 15 0 11 64 -5 81 -19 21 -44 25 -44 8z"/>
<path d="M4246 4014 c-5 -13 8 -54 17 -54 2 0 1 16 -1 35 -5 39 -7 42 -16 19z"/>
<path d="M680 3963 c0 -7 -10 -13 -22 -13 -13 0 -30 -5 -38 -10 -12 -7 -9 -9
10 -8 38 3 101 -12 95 -23 -11 -17 22 -9 39 10 16 17 16 20 1 35 -19 18 -35
21 -35 5 0 -5 5 -7 10 -4 6 3 10 -1 10 -10 0 -10 -7 -15 -17 -13 -10 2 -17 11
-17 21 1 9 -2 17 -7 17 -5 0 -9 -6 -9 -12 0 -9 -4 -8 -10 2 -6 10 -10 11 -10
3z"/>
<path d="M4293 3863 c0 -7 7 -12 16 -11 9 2 16 7 16 12 0 5 -7 10 -16 11 -9 2
-16 -4 -16 -12z"/>
<path d="M4547 3643 c-4 -3 -7 -17 -7 -30 0 -12 -3 -23 -8 -23 -17 0 -32 -40
-22 -60 11 -21 70 -29 70 -9 0 5 4 8 8 5 9 -5 26 22 35 54 10 35 -53 87 -76
63z"/>
<path d="M4747 3193 c-4 -3 -7 -11 -7 -17 0 -6 5 -5 12 2 6 6 9 14 7 17 -3 3
-9 2 -12 -2z"/>
<path d="M282 2873 c2 -10 14 -20 28 -22 25 -3 25 -3 6 18 -23 26 -39 27 -34
4z"/>
<path d="M270 2294 c0 -8 5 -12 10 -9 6 3 10 10 10 16 0 5 -4 9 -10 9 -5 0
-10 -7 -10 -16z"/>
<path d="M260 2100 c0 -5 4 -10 9 -10 6 0 13 5 16 10 3 6 -1 10 -9 10 -9 0
-16 -4 -16 -10z"/>
<path d="M4511 1619 c-1 -9 7 -23 17 -30 15 -12 16 -12 6 1 -6 8 -14 22 -17
30 -5 13 -6 12 -6 -1z"/>
<path d="M4530 1555 c0 -8 2 -15 4 -15 2 0 6 7 10 15 3 8 1 15 -4 15 -6 0 -10
-7 -10 -15z"/>
<path d="M4486 1481 c-13 -15 -14 -20 -4 -24 10 -4 10 -8 -2 -17 -13 -10 -13
-11 0 -7 8 2 15 12 15 23 1 10 4 25 8 32 12 18 2 15 -17 -7z"/>
<path d="M4393 1383 c0 -9 5 -9 21 -1 31 16 32 18 4 16 -13 -1 -25 -8 -25 -15z"/>
<path d="M603 1165 c-20 -22 -15 -43 13 -61 23 -16 26 -16 41 -1 24 24 23 65
-2 71 -30 8 -39 7 -52 -9z m61 -47 c-8 -13 -31 -9 -49 8 -12 12 -13 19 -5 29
9 11 16 10 35 -7 14 -12 22 -25 19 -30z"/>
<path d="M4275 1150 c-3 -5 -1 -10 4 -10 6 0 11 5 11 10 0 6 -2 10 -4 10 -3 0
-8 -4 -11 -10z"/>
<path d="M676 1102 c-2 -4 4 -9 15 -9 10 -1 19 2 19 8 0 11 -27 12 -34 1z"/>
<path d="M710 1079 c0 -5 -5 -7 -12 -3 -7 4 -8 3 -4 -4 4 -6 13 -9 21 -5 17 6
20 23 5 23 -5 0 -10 -5 -10 -11z"/>
</g>
</svg>
